<svg version="1.2" xmlns="http://www.w3.org/2000/svg" viewBox="0 0 4800 4800" width="4800" height="4800">
	<title>logo</title>
	<style>
		.s0 { fill: #48b8ff }
		.s1 { fill: none;stroke: #343d46;stroke-width: 166.2 }
		.s2 { fill: #343d46 }
	</style>
	<g id="Group 2">
		<path id="Ellipse 1 copy" class="s0" d="m2896.6 583.4c1003.2 0 1816.5 813.3 1816.5 1816.5 0 1003.2-813.3 1816.5-1816.5 1816.5-1003.2 0-1816.5-813.3-1816.5-1816.5 0-1003.2 813.3-1816.5 1816.5-1816.5z"/>
		<path id="Ellipse 1" class="s1" d="m2896.6 583.4c1003.2 0 1816.5 813.3 1816.5 1816.5 0 1003.2-813.3 1816.5-1816.5 1816.5-1003.2 0-1816.5-813.3-1816.5-1816.5 0-1003.2 813.3-1816.5 1816.5-1816.5z"/>
		<path id=".ftl" class="s2" aria-label=".ftl"  d="m1674.1 2581.2q15.6 21 15.6 57.7 0 35.8-22.6 68.5-22.6 32-58.4 54.6-73.3 47.5-166 47.5-89.6 0-127-46-20.2-25.7-20.2-60.8 0-69.3 70.9-123 70.9-53.8 169-53.8 99 0 138.7 55.3zm768.9 87.3q-74 38.9-151.1 63.8-76.4 24.2-143.4 24.2-67 0-151.1-60.8-12.5 67.8-23.4 135.6-10.1 67-24.9 128.5-14.8 61.6-37.4 114.6-21.8 52.9-57.6 91.1-78.7 83.4-219 83.4-21.8 0-35.8-16.4-24.9-29.6-20.3-67 4.7-38.2 29.7-108.3 24.9-70.1 63.1-154.2 38.1-85 85.7-180l100.4-191.6q-17.1-40.6-17.1-72.5 0-31.9 10.9-63.9 10.9-31.9 30.4-60 44.4-66.2 98.9-66.2 10.2 0 21.1 2.3 204.1-345.9 234.5-394.2l42.8-67q120-176.8 227.5-211.9 36.6-11.6 74.8-11.6 38.2 0 62.3 26.4 24.9 26.5 24.9 84.2 0 164.4-183.8 377.8l-202.6 224.4q-53.7 58.4-102.8 120 25.7 29.6 47.5 51.4 21.8 21 35.9 21 14.8 0 42.8-9.3 28.1-10.2 63.9-26.5 36.6-16.4 77.9-37.4 41.3-21.8 80.2-44.4 85.7-49.9 123.1-81.8 65.5-55.3 102.9-55.3 27.2 0 39.7 12.4 20.2 20.3 20.2 48.3 0 27.3-30.3 77.2-29.6 49-81.1 101.2-50.6 51.5-117.6 102.1-67 50.6-141.8 90.4zm1074.3-412.2q76.4 0 76.4 53 0 50.7-71.7 130.9l-38.2 39.7q-69.3 70.9-162 139.5-91.9 68.5-162.1 108.3-162.8 90.3-295.2 90.3-124.7 0-203.3-74.7-67.8-64.7-67.8-136.4 0-71.7 14-142.5 14-70.9 36.6-138.7 45.2-137.9 99-234.5 14-26.5 14-34.3h-100.5q-56.9 0-88.1-26.5-31.1-26.5-31.1-60 0-33.5 12.4-49 12.5-15.6 31.2-22.6 26.5-10.9 77.9-10.9l190.9 0.7q6.2-2.3 24.9-33.5l47.5-81.8q30.4-54.5 60.8-80.2 31.2-25.7 72.5-25.7 42 0 70.1 7.8 28.8 7.8 48.3 19.4 38.1 25 38.1 54.6 0 12.4-8.5 33.5l-43.7 105.9 370.1-0.7q48.3 0 48.3 49.8 0 118.4-211.1 118.4l-285.2 0.8q-9.3 4.7-31.9 45.2l-35.1 64.7q-13.2 24.1-18.7 36.6l-17.1 38.1q-52.2 117.7-52.2 169.9 0 52.2 27.3 87.2 28 35.1 74 35.1 46 0 89.6-17.9 44.4-17.9 86.5-43.7 76.3-47.5 119.9-88 43.7-40.5 72.5-61.5 0 0 54.5-38.2 42.1-28.1 66.2-28.1zm854.7-16.3q49.8 0 49.8 41.3 0 50.6-60.8 120.7-100.4 116.9-236.8 227.5-222 177.6-396.5 177.6-125.4 0-205.7-109-83.4-113.8-83.4-305.4 0-251.7 245.5-556.3 155.8-193.9 293.7-263.3 42.8-21.8 65.4-21.8 23.4 0 42.1 7.8 19.4 7 35.8 20.2 38.2 32 38.2 77.2 0 45.2-25 107.5-24.9 61.5-72.4 131.6-100.5 148.8-271.9 285.2-44.4 84.9-44.4 204.1 0 53.7 34.3 101.3 35 47.5 77.1 47.5 57.7 0 220.5-119.2l138.6-106.7q85-67.8 155.9-67.8z"/>
	</g>
</svg>
